<?xml version="1.0" encoding="UTF-8"?>
<svg xmlns="http://www.w3.org/2000/svg" xmlns:xlink="http://www.w3.org/1999/xlink">
  <style>
    g:not(:target) {
      display: none;
    }
  </style>

  <symbol id="company" fill="none" viewBox="0 0 14 14">
    <path fill="currentColor"
      d="M4.344 6.374h5.344c.006 0 .014 0 .02-.002a.124.124 0 0 0 .103-.143l-.628-3.875a.124.124 0 0 0-.124-.105H4.972a.124.124 0 0 0-.124.105L4.22 6.229l-.001.02c0 .069.056.125.125.125Zm1.425-3.062H8.26l.323 2h-3.14l.325-2Zm.039 4.417a.124.124 0 0 0-.124-.105H1.597a.124.124 0 0 0-.123.105l-.629 3.875-.001.02c0 .069.056.125.125.125h5.344c.006 0 .014 0 .02-.002a.124.124 0 0 0 .103-.143l-.628-3.875ZM2.07 10.687l.324-2h2.492l.323 2H2.07Zm11.085.917-.628-3.875a.124.124 0 0 0-.124-.105H8.316a.124.124 0 0 0-.124.105l-.628 3.875-.001.02c0 .069.056.125.125.125h5.343c.007 0 .014 0 .02-.002a.126.126 0 0 0 .104-.143Zm-4.366-.917.324-2h2.492l.323 2H8.79Z" />
  </symbol>

  <symbol id="location" fill="none" viewBox="0 0 22 22">
    <path fill="currentColor" fill-rule="evenodd"
      d="M10.694 1.222c-4.214 0-7.638 3.056-7.638 6.722 0 5.525 7.638 12.834 7.638 12.834s7.64-7.31 7.64-12.834c0-3.666-3.425-6.722-7.64-6.722Zm0 17.784C8.326 16.524 4.33 11.538 4.33 7.944c0-3.03 2.864-5.5 6.365-5.5 1.706 0 3.323.587 4.533 1.663 1.171 1.05 1.833 2.407 1.833 3.837 0 3.594-3.997 8.58-6.366 11.062Zm2.547-11.062c0 1.357-1.133 2.445-2.547 2.445-1.413 0-2.546-1.088-2.546-2.445 0-1.356 1.133-2.444 2.546-2.444 1.414 0 2.547 1.088 2.547 2.444Z"
      clip-rule="evenodd" />
  </symbol>

  <symbol id="asset" fill="none" viewBox="0 0 22 22">
    <path fill="currentColor"
      d="m11.302.612-.051.001a.84.84 0 0 0-.362.112l-8.655 4.8a.786.786 0 0 0-.293.28.746.746 0 0 0-.108.386v9.619c0 .14.04.276.115.395.074.12.18.218.309.284l8.651 4.797.049.025v.002c.024.011.05.021.075.03l.01.003c.026.009.051.016.077.022.01 0 .01.002.015.003a.894.894 0 0 0 .172.018.866.866 0 0 0 .172-.018c.009 0 .01-.002.014-.003a.886.886 0 0 0 .077-.022l.01-.003a.805.805 0 0 0 .076-.03v-.002a.968.968 0 0 0 .048-.025l8.652-4.797a.787.787 0 0 0 .31-.284.746.746 0 0 0 .113-.395V6.191a.745.745 0 0 0-.282-.585l-.026-.021c0-.002-.009-.004-.009-.006a.826.826 0 0 0-.096-.061L11.714.72a.825.825 0 0 0-.42-.11h.007Zm.009 1.95a.39.39 0 0 1 .188.048l5.892 3.267a.355.355 0 0 1 0 .628L11.5 9.772a.389.389 0 0 1-.377 0L5.23 6.505a.355.355 0 0 1 0-.628l5.892-3.267a.39.39 0 0 1 .189-.048Zm-7.283 5.59c.068 0 .135.017.194.05l5.88 3.26a.368.368 0 0 1 .138.133.35.35 0 0 1 .05.18v6.522c0 .278-.313.451-.564.312l-5.88-3.26a.369.369 0 0 1-.138-.133.35.35 0 0 1-.05-.18V8.514a.37.37 0 0 1 .37-.361Zm14.566 0a.37.37 0 0 1 .37.362v6.522a.36.36 0 0 1-.188.312l-5.88 3.261c-.251.14-.565-.034-.565-.313v-6.52a.36.36 0 0 1 .188-.314l5.88-3.26a.386.386 0 0 1 .195-.05Z" />
  </symbol>

  <symbol id="component" fill="none" viewBox="0 0 22 22">
    <path fill="currentColor"
      d="m10.969 2.5-.052.002a.84.84 0 0 0-.361.112L1.9 7.414a.786.786 0 0 0-.294.28.746.746 0 0 0-.107.386v5.619c0 .14.04.276.114.395.075.12.182.218.31.284l8.65 4.797.05.025v.002a.796.796 0 0 0 .162.054c.009.001.01.003.014.004a.894.894 0 0 0 .172.018.866.866 0 0 0 .082-.005h.013a.652.652 0 0 0 .078-.013c.009 0 .01-.002.014-.004a.886.886 0 0 0 .077-.02l.01-.004a.805.805 0 0 0 .075-.03V19.2a.968.968 0 0 0 .049-.025l8.652-4.798a.787.787 0 0 0 .309-.283.746.746 0 0 0 .113-.395V8.08a.745.745 0 0 0-.281-.585l-.026-.021-.01-.006a.826.826 0 0 0-.096-.061l-8.65-4.797a.825.825 0 0 0-.419-.11h.007Zm.008 1.95a.39.39 0 0 1 .189.049l5.892 3.267a.355.355 0 0 1 0 .627l-5.892 3.268a.39.39 0 0 1-.377 0L4.897 8.393a.355.355 0 0 1 0-.627L10.789 4.5a.39.39 0 0 1 .188-.048Zm-7.283 5.591c.068 0 .135.016.194.05l5.88 3.26a.368.368 0 0 1 .138.132.35.35 0 0 1 .05.181v2.521c0 .279-.313.452-.564.313l-5.88-3.26a.369.369 0 0 1-.137-.133.35.35 0 0 1-.05-.18v-2.522a.37.37 0 0 1 .37-.362Zm14.566 0a.37.37 0 0 1 .37.362v2.521a.36.36 0 0 1-.188.313l-5.88 3.261c-.25.14-.564-.035-.564-.313v-2.52a.36.36 0 0 1 .188-.314l5.88-3.26a.387.387 0 0 1 .194-.05Z" />
  </symbol>

  <symbol id="search" fill="none" viewBox="0 0 14 14">
    <path fill="currentColor"
      d="M13.213 12.354 9.155 8.296c.63-.814.97-1.81.97-2.857a4.66 4.66 0 0 0-1.373-3.314A4.653 4.653 0 0 0 5.438.752a4.66 4.66 0 0 0-3.314 1.373A4.65 4.65 0 0 0 .75 5.44c0 1.252.49 2.43 1.374 3.314a4.65 4.65 0 0 0 3.314 1.374 4.65 4.65 0 0 0 2.854-.969l4.058 4.056a.13.13 0 0 0 .09.038.129.129 0 0 0 .091-.038l.682-.68a.127.127 0 0 0 .028-.139.128.128 0 0 0-.028-.041Zm-5.3-4.44A3.481 3.481 0 0 1 5.438 8.94a3.481 3.481 0 0 1-2.475-1.025A3.481 3.481 0 0 1 1.938 5.44c0-.934.364-1.814 1.025-2.475A3.481 3.481 0 0 1 5.438 1.94c.934 0 1.814.363 2.475 1.025A3.481 3.481 0 0 1 8.938 5.44c0 .935-.364 1.814-1.025 2.475Z" />
  </symbol>

  <symbol id="arrow-down" fill="none" viewBox="0 0 10 10">
    <path fill="currentColor"
      d="M9.152 2.143h-.837a.18.18 0 0 0-.144.074L5 6.587l-3.17-4.37a.18.18 0 0 0-.145-.074H.848a.09.09 0 0 0-.072.142L4.71 7.71a.356.356 0 0 0 .577 0l3.935-5.425a.089.089 0 0 0-.071-.142Z" />
  </symbol>

  <symbol id="info" fill="none" viewBox="0 0 16 16">
    <path fill="currentColor"
      d="M8 1a7 7 0 1 0 0 14A7 7 0 0 0 8 1Zm0 12.813A5.813 5.813 0 0 1 8 2.187a5.813 5.813 0 0 1 0 11.626Z" />
    <path fill="currentColor"
      d="M7.25 10.75a.75.75 0 1 0 1.5 0 .75.75 0 0 0-1.5 0ZM7.625 9h.75a.125.125 0 0 0 .125-.125v-4.25a.125.125 0 0 0-.125-.125h-.75a.125.125 0 0 0-.125.125v4.25c0 .069.056.125.125.125Z" />
  </symbol>

  <symbol id="energy" fill="none" viewBox="0 0 16 16">
    <path fill="currentColor"
      d="M14 5.272h-3.934l3.537-4.47a.143.143 0 0 0-.112-.232H6.643a.142.142 0 0 0-.123.072l-4.627 7.99a.142.142 0 0 0 .123.215H5.13l-1.596 6.386c-.034.14.134.237.237.137l10.327-9.853A.142.142 0 0 0 14 5.272Zm-8.39 6.664 1.077-4.303h-2.81l3.385-5.847h4.011l-3.72 4.702h3.768l-5.71 5.448Z" />
  </symbol>

</svg>